<?xml version="1.0" encoding="UTF-8"?>
<svg xmlns="http://www.w3.org/2000/svg" xmlns:xlink="http://www.w3.org/1999/xlink" width="2348.5pt" height="560.21pt" viewBox="0 0 2348.5 560.21" version="1.1">
<defs>
<clipPath id="clip1">
  <path d="M 0 14 L 712 14 L 712 560.210938 L 0 560.210938 Z M 0 14 "/>
</clipPath>
<clipPath id="clip2">
  <path d="M 2280 39 L 2348.5 39 L 2348.5 109 L 2280 109 Z M 2280 39 "/>
</clipPath>
</defs>
<g id="surface1">
<path style=" stroke:none;fill-rule:nonzero;fill:rgb(5.899048%,13.299561%,40.79895%);fill-opacity:1;" d="M 322.761719 404.003906 C 234.789063 404.003906 163.472656 332.480469 163.472656 244.253906 C 163.472656 156.023438 234.789063 84.503906 322.761719 84.503906 C 410.734375 84.503906 482.050781 156.023438 482.050781 244.253906 C 482.050781 332.480469 410.734375 404.003906 322.761719 404.003906 M 322.761719 74.605469 C 229.335938 74.605469 153.601563 150.558594 153.601563 244.253906 C 153.601563 337.949219 229.335938 413.902344 322.761719 413.902344 C 416.183594 413.902344 491.921875 337.949219 491.921875 244.253906 C 491.921875 150.558594 416.183594 74.605469 322.761719 74.605469 "/>
<g clip-path="url(#clip1)" clip-rule="nonzero">
<path style=" stroke:none;fill-rule:nonzero;fill:rgb(5.899048%,13.299561%,40.79895%);fill-opacity:1;" d="M 285.59375 454.59375 C 180.738281 436.683594 105.601563 351.015625 105.601563 244.253906 C 105.601563 123.972656 202.824219 26.464844 322.761719 26.464844 C 442.695313 26.464844 539.921875 123.972656 539.921875 244.253906 C 539.921875 302.410156 517.578125 354.726563 482.050781 392.40625 C 392.695313 405.726563 285.59375 454.59375 285.59375 454.59375 M 530.226563 341.90625 C 544.121094 312.269531 551.886719 279.171875 551.886719 244.253906 C 551.886719 117.34375 449.304688 14.464844 322.761719 14.464844 L 301.082031 14.464844 C 168.972656 14.464844 73.957031 117.34375 73.957031 244.253906 C 73.957031 307.824219 104.636719 365.363281 151.160156 406.96875 C 64.667969 446.800781 0 500.652344 0 500.652344 C 0 500.652344 74.355469 528.34375 122.535156 560.210938 C 194.234375 509.753906 285.660156 455.882813 442.714844 411.878906 C 599.769531 367.871094 709.785156 379.632813 709.785156 379.632813 L 711.304688 372.425781 "/>
</g>
<path style=" stroke:none;fill-rule:nonzero;fill:rgb(5.899048%,13.299561%,40.79895%);fill-opacity:1;" d="M 294.304688 161.417969 C 294.304688 145.910156 282.757813 133.335938 268.511719 133.335938 C 254.261719 133.335938 242.714844 145.910156 242.714844 161.417969 C 242.714844 176.925781 254.261719 189.5 268.511719 189.5 C 282.757813 189.5 294.304688 176.925781 294.304688 161.417969 "/>
<path style=" stroke:none;fill-rule:nonzero;fill:rgb(5.899048%,13.299561%,40.79895%);fill-opacity:1;" d="M 195.730469 187.074219 L 293.234375 197.046875 C 293.234375 197.046875 301.179688 198.90625 304.894531 201.609375 C 308.613281 204.3125 336.160156 221.210938 336.160156 221.210938 L 391.246094 212.425781 C 391.246094 212.425781 414.90625 208.707031 424.707031 220.367188 C 425.382813 222.054688 430.621094 231.179688 430.621094 231.179688 L 440.761719 344.402344 L 384.488281 344.402344 C 384.488281 344.402344 348.324219 341.542969 348.324219 307.742188 C 348.324219 290.339844 355.652344 282.046875 355.652344 282.046875 L 373.164063 248.082031 C 373.164063 248.082031 376.714844 237.773438 366.238281 235.914063 C 358.464844 236.082031 334.300781 236.929688 334.300781 236.929688 L 301.851563 226.28125 C 301.851563 226.28125 298.472656 225.4375 296.105469 228.308594 C 293.742188 231.179688 282.722656 238.753906 271.972656 344.402344 L 232.972656 344.402344 C 232.972656 344.402344 227.722656 260.003906 229.722656 239.003906 C 231.722656 218.003906 222.472656 210.753906 210.722656 207.253906 C 198.972656 203.753906 195.730469 204.003906 195.730469 204.003906 "/>
<path style=" stroke:none;fill-rule:nonzero;fill:rgb(5.899048%,13.299561%,40.79895%);fill-opacity:1;" d="M 397.644531 153.765625 C 397.644531 153.765625 374.914063 153.617188 374.914063 179.152344 C 374.914063 204.691406 396.023438 205.871094 397.644531 205.871094 C 399.269531 205.871094 425.691406 204.984375 425.691406 204.984375 C 425.691406 204.984375 422.6875 188.253906 421.558594 174.722656 C 420.523438 162.328125 408.863281 153.324219 397.644531 153.324219 "/>
<path style=" stroke:none;fill-rule:nonzero;fill:rgb(5.899048%,13.299561%,40.79895%);fill-opacity:1;" d="M 686.523438 126.632813 L 712.972656 126.632813 C 746.929688 126.632813 764.328125 112.675781 764.328125 88.867188 C 764.328125 69.160156 747.5625 60.539063 723.921875 60.539063 C 713.175781 60.539063 704.148438 61.359375 699.421875 62.183594 Z M 661.464844 248.1875 C 668.898438 248.96875 676.339844 248.96875 685.523438 248.96875 C 722.722656 248.96875 750.710938 236.84375 750.710938 207.515625 C 750.710938 179.503906 728.722656 173.488281 696.898438 173.488281 L 677.214844 173.488281 Z M 647.734375 14.5625 L 720.597656 14.5625 C 749.746094 14.5625 786.171875 16.804688 804.644531 27.476563 C 823.117188 36.917969 831.441406 57.820313 830.277344 81.191406 C 828.246094 122.082031 795.753906 137.46875 765.378906 146.089844 L 765.34375 146.75 C 792.027344 154.960938 816.648438 172.742188 816.648438 208.753906 C 816.648438 238.722656 797.105469 262.945313 775.347656 277.3125 C 751.949219 293.324219 714.261719 294.605469 668.285156 294.605469 L 588.53125 294.605469 "/>
<path style=" stroke:none;fill-rule:nonzero;fill:rgb(5.899048%,13.299561%,40.79895%);fill-opacity:1;" d="M 912.066406 62.570313 C 893.875 62.570313 879.683594 51.28125 879.683594 34.347656 C 879.683594 14.59375 897.625 0.00390625 917.636719 0.00390625 C 937.195313 0.00390625 950.636719 12.578125 950.636719 29.914063 C 950.636719 50.476563 933.898438 62.570313 912.976563 62.570313 Z M 842.8125 243.976563 C 846.328125 219.902344 871.460938 93.351563 871.460938 93.351563 L 934.058594 93.351563 C 934.058594 93.351563 910.472656 211.503906 905.722656 234.753906 C 900.972656 258.003906 940.222656 246.753906 940.222656 246.753906 L 930.722656 292.253906 C 930.722656 292.253906 916.023438 298.410156 895.136719 298.003906 C 882.222656 297.753906 835.222656 296.003906 842.8125 243.976563 "/>
<path style=" stroke:none;fill-rule:nonzero;fill:rgb(5.899048%,13.299561%,40.79895%);fill-opacity:1;" d="M 1065.96875 129.503906 C 1037.371094 129.503906 1023.738281 161.242188 1019.46875 179.503906 C 1067.710938 179.910156 1088.96875 165.167969 1088.96875 146.503906 C 1088.96875 136.765625 1080.058594 129.503906 1065.96875 129.503906 M 1110.46875 282.003906 C 1086.140625 293.769531 1068.148438 298.613281 1044.671875 298.613281 C 985.332031 298.613281 954.597656 266.558594 954.597656 214.621094 C 954.597656 154.167969 1000.699219 91.273438 1076.261719 91.273438 C 1118.519531 91.273438 1146.96875 112.003906 1146.96875 142.003906 C 1146.96875 192.316406 1115.808594 213.003906 1014.921875 217.464844 C 1015.351563 228.539063 1016.320313 231.621094 1019.910156 237.75 C 1027.96875 251.503906 1038.039063 254.503906 1055.96875 254.503906 C 1078.601563 254.503906 1102.820313 246.210938 1119.46875 238.503906 "/>
<path style=" stroke:none;fill-rule:nonzero;fill:rgb(5.899048%,13.299561%,40.79895%);fill-opacity:1;" d="M 1490.96875 129.503906 C 1462.371094 129.503906 1448.738281 161.242188 1444.46875 179.503906 C 1492.710938 179.910156 1513.96875 165.167969 1513.96875 146.503906 C 1513.96875 136.765625 1505.058594 129.503906 1490.96875 129.503906 M 1535.46875 282.003906 C 1511.140625 293.769531 1493.148438 298.613281 1469.671875 298.613281 C 1410.328125 298.613281 1379.601563 266.558594 1379.601563 214.621094 C 1379.601563 154.167969 1425.699219 91.273438 1501.261719 91.273438 C 1543.519531 91.273438 1571.96875 112.003906 1571.96875 142.003906 C 1571.96875 192.316406 1540.808594 213.003906 1439.921875 217.464844 C 1440.351563 228.539063 1441.320313 231.621094 1444.910156 237.75 C 1452.96875 251.503906 1463.039063 254.503906 1480.96875 254.503906 C 1503.601563 254.503906 1527.820313 246.210938 1544.46875 238.503906 "/>
<path style=" stroke:none;fill-rule:nonzero;fill:rgb(5.899048%,13.299561%,40.79895%);fill-opacity:1;" d="M 1143.429688 293.339844 L 1170.101563 160.085938 C 1175.691406 135.050781 1180.578125 111.796875 1183.589844 94.03125 L 1243.710938 94.164063 L 1239.628906 132.949219 L 1240.488281 132.949219 C 1260.28125 107.507813 1288.078125 90.273438 1316.039063 90.273438 C 1350.460938 90.273438 1363.410156 113.355469 1363.410156 141.132813 C 1363.410156 150.019531 1359.371094 168.96875 1357.648438 178.660156 L 1334.421875 293.339844 L 1272.050781 293.339844 L 1295.371094 185.015625 C 1296.660156 178.152344 1299.269531 169.472656 1299.269531 162.203125 C 1299.269531 148.070313 1296.789063 136.839844 1280.878906 136.839844 C 1260.660156 136.839844 1231.609375 162.105469 1223.011719 205.714844 L 1205.378906 293.339844 "/>
<path style=" stroke:none;fill-rule:nonzero;fill:rgb(5.899048%,13.299561%,40.79895%);fill-opacity:1;" d="M 2253.96875 152.003906 C 2246.308594 147.335938 2230.96875 145.671875 2230.96875 145.671875 C 2210.761719 145.671875 2185.910156 162.058594 2177.308594 205.671875 L 2157.378906 293.339844 L 2095.429688 293.339844 L 2122.101563 160.085938 C 2127.691406 135.050781 2132.578125 111.796875 2135.589844 94.03125 L 2195.710938 94.164063 L 2191.628906 132.949219 L 2192.488281 132.949219 C 2212.28125 107.507813 2215.308594 86.003906 2266.640625 91.003906 C 2266.640625 91.003906 2258.308594 127.335938 2253.96875 152.003906 "/>
<path style=" stroke:none;fill-rule:nonzero;fill:rgb(5.899048%,13.299561%,40.79895%);fill-opacity:1;" d="M 1574.71875 242.003906 C 1586.339844 247.683594 1613.21875 258.503906 1632.71875 258.503906 C 1649.738281 258.503906 1660.96875 248.992188 1660.96875 239.253906 C 1660.96875 229.515625 1657.21875 222.753906 1633.410156 212.355469 C 1609.699219 202.007813 1590.46875 181.503906 1590.46875 156.753906 C 1590.46875 115.367188 1623.929688 90.253906 1676.21875 90.253906 C 1699.878906 90.253906 1719.96875 94.253906 1732.96875 98.253906 L 1723.71875 144.503906 C 1715.421875 140.851563 1693.148438 131.753906 1675.71875 131.753906 C 1659.539063 131.753906 1650.839844 140.539063 1650.839844 151.496094 C 1650.839844 159.609375 1659.238281 168.960938 1675.71875 176.003906 C 1703.21875 187.753906 1719.71875 205.160156 1719.71875 232.753906 C 1719.71875 278.199219 1675.71875 299.503906 1627.21875 299.503906 C 1601.488281 299.503906 1580.46875 294.605469 1566.46875 288.003906 "/>
<path style=" stroke:none;fill-rule:nonzero;fill:rgb(5.899048%,13.299561%,40.79895%);fill-opacity:1;" d="M 1856.300781 32.003906 L 1843.820313 94.367188 L 1890.878906 94.367188 L 1881.300781 139.25 L 1834.679688 139.25 L 1820.320313 206.980469 C 1818.578125 214.730469 1815.300781 226.398438 1815.300781 233.335938 C 1815.300781 243.128906 1817.050781 251.335938 1830.96875 251.335938 C 1836.191406 251.335938 1851.75 247.484375 1856.96875 246.671875 L 1849.300781 290.003906 C 1841.039063 292.859375 1821.191406 298.78125 1808.128906 298.78125 C 1770.269531 298.78125 1752.429688 280.828125 1752.429688 255.53125 C 1752.429688 244.921875 1753.738281 233.90625 1757.210938 218.402344 L 1773.320313 139.25 L 1742.640625 139.25 L 1751.339844 94.367188 L 1782.460938 94.367188 L 1791.898438 48.324219 "/>
<path style=" stroke:none;fill-rule:nonzero;fill:rgb(5.899048%,13.299561%,40.79895%);fill-opacity:1;" d="M 2028.398438 134.804688 C 2023.828125 134 2009.050781 133.207031 2002.820313 133.207031 C 1964.171875 133.207031 1941.078125 181.488281 1941.078125 218.234375 C 1941.078125 237.613281 1949.21875 252.332031 1965.839844 252.332031 C 1983.710938 252.332031 2005.011719 235.742188 2017.210938 184.574219 Z M 2001.96875 293.339844 C 2002.390625 281.628906 2002.640625 275.136719 2003.46875 261.003906 L 2001.46875 260.503906 C 1981.03125 290.109375 1962.941406 298.503906 1939.25 298.503906 C 1902.691406 298.503906 1878.75 270.320313 1878.75 229.136719 C 1878.75 155.003906 1919.46875 90.234375 2013.011719 90.234375 C 2037.53125 90.234375 2079.441406 95.753906 2096.46875 101.003906 L 2073.46875 210.503906 C 2068.488281 235.941406 2063.96875 270.503906 2061.988281 293.339844 "/>
<g clip-path="url(#clip2)" clip-rule="nonzero">
<path style=" stroke:none;fill-rule:nonzero;fill:rgb(5.899048%,13.299561%,40.79895%);fill-opacity:1;" d="M 2307.910156 72.851563 L 2312.371094 72.851563 C 2317.441406 72.851563 2321.75 71.003906 2321.75 66.238281 C 2321.75 62.855469 2319.289063 59.472656 2312.371094 59.472656 C 2310.371094 59.472656 2308.988281 59.628906 2307.910156 59.78125 Z M 2307.910156 94.222656 L 2301.761719 94.222656 L 2301.761719 55.628906 C 2304.988281 55.167969 2308.058594 54.707031 2312.679688 54.707031 C 2318.519531 54.707031 2322.359375 55.9375 2324.671875 57.628906 C 2326.96875 59.320313 2328.199219 61.933594 2328.199219 65.625 C 2328.199219 70.699219 2324.820313 73.773438 2320.671875 75.003906 L 2320.671875 75.308594 C 2324.050781 75.925781 2326.359375 79 2327.128906 84.6875 C 2328.050781 90.683594 2328.96875 92.992188 2329.589844 94.222656 L 2323.128906 94.222656 C 2322.210938 92.992188 2321.289063 89.453125 2320.519531 84.382813 C 2319.601563 79.460938 2317.140625 77.617188 2312.21875 77.617188 L 2307.910156 77.617188 Z M 2314.371094 44.867188 C 2299.148438 44.867188 2286.691406 57.9375 2286.691406 74.078125 C 2286.691406 90.53125 2299.148438 103.445313 2314.519531 103.445313 C 2329.898438 103.601563 2342.199219 90.53125 2342.199219 74.234375 C 2342.199219 57.9375 2329.898438 44.867188 2314.519531 44.867188 Z M 2314.519531 39.488281 C 2333.429688 39.488281 2348.5 54.863281 2348.5 74.078125 C 2348.5 93.605469 2333.429688 108.828125 2314.371094 108.828125 C 2295.460938 108.828125 2280.078125 93.605469 2280.078125 74.078125 C 2280.078125 54.863281 2295.460938 39.488281 2314.371094 39.488281 "/>
</g>
<path style=" stroke:none;fill-rule:nonzero;fill:rgb(92.89856%,10.998535%,13.699341%);fill-opacity:1;" d="M 826.144531 404.839844 C 829.285156 405.5 832.09375 405.832031 836.226563 405.832031 C 852.421875 405.832031 863.328125 395.421875 863.328125 382.199219 C 863.328125 370.300781 854.898438 366.007813 843.992188 366.007813 C 839.203125 366.007813 835.566406 366.335938 833.253906 366.996094 Z M 817.058594 353.28125 C 823.835938 351.628906 833.914063 350.636719 843.828125 350.636719 C 854.238281 350.636719 865.144531 352.785156 872.417969 358.570313 C 878.859375 363.527344 882.664063 370.796875 882.664063 380.714844 C 882.664063 393.933594 876.382813 404.675781 868.453125 410.953125 C 859.527344 418.0625 846.800781 421.53125 833.582031 421.53125 C 829.617188 421.53125 826.144531 421.035156 823.171875 420.703125 L 815.074219 462.84375 L 796.234375 462.84375 "/>
<path style=" stroke:none;fill-rule:nonzero;fill:rgb(92.89856%,10.998535%,13.699341%);fill-opacity:1;" d="M 882.828125 462.84375 L 892.246094 413.269531 C 894.394531 401.863281 895.550781 389.472656 896.378906 382.363281 L 913.066406 382.363281 C 912.570313 387.820313 912.078125 393.4375 911.25 399.222656 L 911.746094 399.222656 C 917.199219 388.480469 925.957031 380.546875 936.863281 380.546875 C 938.351563 380.546875 939.839844 380.714844 941.160156 380.714844 L 937.359375 399.550781 C 936.367188 399.386719 935.046875 399.386719 933.722656 399.386719 C 920.007813 399.386719 911.25 413.269531 908.109375 430.453125 L 901.996094 462.84375 "/>
<path style=" stroke:none;fill-rule:nonzero;fill:rgb(92.89856%,10.998535%,13.699341%);fill-opacity:1;" d="M 1014.53125 348.15625 L 992.882813 372.617188 L 978.339844 372.617188 L 994.203125 348.15625 Z M 984.289063 394.925781 C 972.222656 394.925781 964.292969 405.667969 961.980469 415.417969 C 981.808594 415.582031 994.53125 412.9375 994.53125 403.1875 C 994.53125 398.066406 990.402344 394.925781 984.289063 394.925781 M 1002.628906 458.21875 C 994.699219 462.347656 983.957031 464.660156 974.207031 464.660156 C 951.898438 464.660156 941.15625 450.945313 941.15625 431.28125 C 941.15625 406.988281 959.003906 380.550781 986.765625 380.550781 C 1002.628906 380.550781 1012.710938 389.636719 1012.710938 403.1875 C 1012.710938 423.84375 991.0625 430.453125 959.996094 429.792969 C 959.664063 432.601563 960.324219 438.054688 962.144531 441.195313 C 965.285156 446.648438 971.066406 449.457031 978.667969 449.457031 C 987.757813 449.457031 995.027344 447.144531 1000.808594 444.171875 "/>
<path style=" stroke:none;fill-rule:nonzero;fill:rgb(92.89856%,10.998535%,13.699341%);fill-opacity:1;" d="M 1020.640625 444.996094 C 1024.769531 447.308594 1032.699219 450.285156 1039.96875 450.285156 C 1047.738281 450.285156 1052.371094 445.820313 1052.371094 440.367188 C 1052.371094 435.410156 1049.71875 432.105469 1041.789063 427.976563 C 1032.539063 423.015625 1025.929688 416.242188 1025.929688 406.988281 C 1025.929688 391.453125 1039.480469 380.550781 1058.480469 380.550781 C 1066.910156 380.550781 1073.851563 382.53125 1077.320313 384.679688 L 1072.53125 398.558594 C 1069.390625 396.90625 1064.101563 394.925781 1057.488281 394.925781 C 1050.21875 394.925781 1045.261719 398.726563 1045.261719 404.179688 C 1045.261719 408.804688 1048.730469 411.945313 1055.671875 415.417969 C 1064.601563 420.210938 1072.359375 426.820313 1072.359375 437.066406 C 1072.359375 454.910156 1057.488281 464.828125 1038.160156 464.660156 C 1028.738281 464.496094 1019.980469 461.851563 1015.679688 458.714844 "/>
<path style=" stroke:none;fill-rule:nonzero;fill:rgb(92.89856%,10.998535%,13.699341%);fill-opacity:1;" d="M 1125.078125 361.710938 L 1121.28125 382.363281 L 1139.289063 382.363281 L 1136.308594 397.238281 L 1118.300781 397.238281 L 1112.019531 429.628906 C 1111.199219 433.429688 1110.539063 437.5625 1110.539063 441.03125 C 1110.539063 445.492188 1112.519531 448.304688 1117.640625 448.304688 C 1119.949219 448.304688 1122.269531 448.136719 1124.25 447.804688 L 1122.429688 462.84375 C 1119.621094 464 1114.5 464.496094 1109.871094 464.496094 C 1096.648438 464.496094 1090.871094 457.226563 1090.871094 447.972656 C 1090.871094 443.507813 1091.371094 439.046875 1092.519531 433.097656 L 1099.460938 397.238281 L 1088.71875 397.238281 L 1091.53125 382.363281 L 1102.269531 382.363281 L 1105.25 367.328125 "/>
<path style=" stroke:none;fill-rule:nonzero;fill:rgb(92.89856%,10.998535%,13.699341%);fill-opacity:1;" d="M 1200.101563 396.246094 C 1198.121094 395.75 1195.640625 395.421875 1192.171875 395.421875 C 1174.488281 395.421875 1160.601563 415.417969 1160.601563 433.761719 C 1160.601563 442.1875 1163.738281 449.128906 1172.171875 449.128906 C 1181.261719 449.128906 1192.171875 437.890625 1195.96875 417.398438 Z M 1192.328125 462.84375 C 1192.328125 458.054688 1192.988281 451.605469 1193.648438 444.832031 L 1193.320313 444.832031 C 1185.390625 459.539063 1174.648438 464.660156 1164.398438 464.660156 C 1150.03125 464.660156 1140.609375 453.425781 1140.609375 437.230469 C 1140.609375 409.800781 1159.78125 380.550781 1197.289063 380.550781 C 1206.050781 380.550781 1215.46875 382.199219 1221.75 384.183594 L 1213.320313 426.15625 C 1211.011719 438.054688 1209.679688 453.261719 1210.011719 462.84375 "/>
<path style=" stroke:none;fill-rule:nonzero;fill:rgb(92.89856%,10.998535%,13.699341%);fill-opacity:1;" d="M 1229.011719 462.84375 L 1239.261719 407.320313 C 1241.078125 397.734375 1242.230469 389.308594 1243.230469 382.363281 L 1259.921875 382.363281 L 1258.101563 396.410156 L 1258.429688 396.410156 C 1265.871094 385.671875 1275.949219 380.546875 1286.519531 380.546875 C 1299.078125 380.546875 1304.699219 388.644531 1305.359375 397.074219 C 1312.628906 386.167969 1322.710938 380.714844 1333.949219 380.546875 C 1344.859375 380.546875 1353.449219 387.652344 1353.449219 402.03125 C 1353.449219 405.5 1352.789063 411.449219 1352.128906 415.746094 L 1343.371094 462.84375 L 1324.699219 462.84375 L 1332.960938 417.894531 C 1333.621094 414.753906 1334.121094 410.953125 1334.121094 407.816406 C 1334.121094 400.875 1331.308594 396.246094 1324.371094 396.246094 C 1315.441406 396.246094 1305.691406 407.320313 1302.550781 424.339844 L 1295.449219 462.84375 L 1276.769531 462.84375 L 1285.53125 417.234375 C 1286.03125 413.929688 1286.519531 410.789063 1286.519531 407.816406 C 1286.519531 401.863281 1284.699219 396.246094 1276.769531 396.246094 C 1267.851563 396.246094 1257.601563 408.476563 1254.628906 424.835938 L 1247.691406 462.84375 "/>
<path style=" stroke:none;fill-rule:nonzero;fill:rgb(92.89856%,10.998535%,13.699341%);fill-opacity:1;" d="M 1386.5 430.949219 C 1386.5 442.023438 1392.28125 449.789063 1402.199219 449.789063 C 1416.570313 449.789063 1426.160156 429.957031 1426.160156 413.929688 C 1426.160156 405.667969 1422.359375 395.421875 1410.789063 395.421875 C 1395.421875 395.421875 1386.5 415.914063 1386.5 430.949219 M 1445.988281 413.765625 C 1445.988281 441.195313 1426.980469 464.660156 1399.550781 464.660156 C 1379.230469 464.660156 1366.671875 450.613281 1366.671875 431.445313 C 1366.671875 404.179688 1385.671875 380.550781 1413.101563 380.550781 C 1434.75 380.550781 1445.988281 396.082031 1445.988281 413.765625 "/>
<path style=" stroke:none;fill-rule:nonzero;fill:rgb(92.89856%,10.998535%,13.699341%);fill-opacity:1;" d="M 1456.398438 444.996094 C 1460.53125 447.308594 1468.460938 450.285156 1475.730469 450.285156 C 1483.5 450.285156 1488.128906 445.820313 1488.128906 440.367188 C 1488.128906 435.410156 1485.480469 432.105469 1477.550781 427.976563 C 1468.300781 423.015625 1461.691406 416.242188 1461.691406 406.988281 C 1461.691406 391.453125 1475.238281 380.550781 1494.238281 380.550781 C 1502.671875 380.550781 1509.609375 382.53125 1513.078125 384.679688 L 1508.289063 398.558594 C 1505.148438 396.90625 1499.859375 394.925781 1493.25 394.925781 C 1485.980469 394.925781 1481.019531 398.726563 1481.019531 404.179688 C 1481.019531 408.804688 1484.488281 411.945313 1491.429688 415.417969 C 1500.359375 420.210938 1508.121094 426.820313 1508.121094 437.066406 C 1508.121094 454.910156 1493.25 464.828125 1473.910156 464.660156 C 1464.5 464.496094 1455.738281 461.851563 1451.441406 458.714844 "/>
<path style=" stroke:none;fill-rule:nonzero;fill:rgb(92.89856%,10.998535%,13.699341%);fill-opacity:1;" d="M 1574.550781 382.367188 L 1580.828125 421.035156 C 1582.320313 429.792969 1583.308594 435.742188 1583.96875 441.195313 L 1584.300781 441.195313 C 1586.28125 436.238281 1588.269531 430.785156 1592.070313 422.027344 L 1609.25 382.367188 L 1629.738281 382.367188 L 1600.328125 441.691406 C 1590.578125 461.191406 1581.660156 475.570313 1570.910156 485.980469 C 1561.660156 494.902344 1551.078125 498.871094 1546.128906 499.859375 L 1541.660156 483.335938 C 1545.300781 482.011719 1550.921875 480.03125 1555.878906 476.230469 C 1561.328125 472.429688 1566.449219 466.808594 1570.089844 460.199219 C 1570.75 459.042969 1570.75 458.054688 1570.421875 456.566406 L 1554.390625 382.367188 "/>
<path style=" stroke:none;fill-rule:nonzero;fill:rgb(92.89856%,10.998535%,13.699341%);fill-opacity:1;" d="M 1720.128906 416.242188 L 1716.988281 388.480469 C 1716.5 382.53125 1715.839844 373.9375 1715.339844 367.328125 L 1715.011719 367.328125 C 1712.03125 374.105469 1709.058594 381.871094 1705.921875 388.480469 L 1692.371094 416.242188 Z M 1686.261719 431.113281 L 1671.050781 462.84375 L 1650.558594 462.84375 L 1706.421875 351.464844 L 1730.539063 351.464844 L 1744.589844 462.84375 L 1724.429688 462.84375 L 1721.289063 431.113281 "/>
<path style=" stroke:none;fill-rule:nonzero;fill:rgb(92.89856%,10.998535%,13.699341%);fill-opacity:1;" d="M 1757.480469 462.84375 L 1779.789063 345.515625 L 1798.949219 345.515625 L 1789.539063 394.429688 L 1789.871094 394.429688 C 1796.640625 386 1805.558594 380.546875 1816.800781 380.546875 C 1827.871094 380.546875 1836.960938 387.324219 1836.960938 402.195313 C 1836.960938 406.328125 1836.300781 411.945313 1835.480469 416.242188 L 1826.71875 462.84375 L 1807.550781 462.84375 L 1816.140625 417.730469 C 1816.640625 414.589844 1817.128906 411.121094 1817.128906 407.152344 C 1817.128906 401.039063 1814.320313 396.246094 1807.050781 396.246094 C 1797.800781 396.246094 1787.058594 407.484375 1783.921875 424.503906 L 1776.648438 462.84375 "/>
<path style=" stroke:none;fill-rule:nonzero;fill:rgb(92.89856%,10.998535%,13.699341%);fill-opacity:1;" d="M 1870.171875 430.949219 C 1870.171875 442.023438 1875.960938 449.789063 1885.871094 449.789063 C 1900.25 449.789063 1909.828125 429.957031 1909.828125 413.929688 C 1909.828125 405.667969 1906.03125 395.421875 1894.46875 395.421875 C 1879.101563 395.421875 1870.171875 415.914063 1870.171875 430.949219 M 1929.660156 413.765625 C 1929.660156 441.195313 1910.660156 464.660156 1883.230469 464.660156 C 1862.898438 464.660156 1850.339844 450.613281 1850.339844 431.445313 C 1850.339844 404.179688 1869.351563 380.550781 1896.78125 380.550781 C 1918.429688 380.550781 1929.660156 396.082031 1929.660156 413.765625 "/>
<path style=" stroke:none;fill-rule:nonzero;fill:rgb(92.89856%,10.998535%,13.699341%);fill-opacity:1;" d="M 1938.089844 462.84375 L 1947.511719 413.269531 C 1949.660156 401.863281 1950.820313 389.472656 1951.640625 382.363281 L 1968.328125 382.363281 C 1967.839844 387.820313 1967.339844 393.4375 1966.511719 399.222656 L 1967.011719 399.222656 C 1972.460938 388.480469 1981.21875 380.546875 1992.128906 380.546875 C 1993.621094 380.546875 1995.101563 380.714844 1996.429688 380.714844 L 1992.621094 399.550781 C 1991.628906 399.386719 1990.308594 399.386719 1988.988281 399.386719 C 1975.269531 399.386719 1966.511719 413.269531 1963.371094 430.453125 L 1957.261719 462.84375 "/>
<path style=" stroke:none;fill-rule:nonzero;fill:rgb(92.89856%,10.998535%,13.699341%);fill-opacity:1;" d="M 1995.429688 462.84375 L 2004.851563 413.269531 C 2007 401.863281 2008.160156 389.472656 2008.980469 382.363281 L 2025.671875 382.363281 C 2025.179688 387.820313 2024.679688 393.4375 2023.851563 399.222656 L 2024.351563 399.222656 C 2029.800781 388.480469 2038.558594 380.546875 2049.46875 380.546875 C 2050.960938 380.546875 2052.441406 380.714844 2053.769531 380.714844 L 2049.960938 399.550781 C 2048.96875 399.386719 2047.648438 399.386719 2046.328125 399.386719 C 2032.609375 399.386719 2023.851563 413.269531 2020.710938 430.453125 L 2014.601563 462.84375 "/>
<path style=" stroke:none;fill-rule:nonzero;fill:rgb(92.89856%,10.998535%,13.699341%);fill-opacity:1;" d="M 2073.921875 430.949219 C 2073.921875 442.023438 2079.710938 449.789063 2089.621094 449.789063 C 2104 449.789063 2113.578125 429.957031 2113.578125 413.929688 C 2113.578125 405.667969 2109.78125 395.421875 2098.210938 395.421875 C 2082.851563 395.421875 2073.921875 415.914063 2073.921875 430.949219 M 2133.410156 413.765625 C 2133.410156 441.195313 2114.410156 464.660156 2086.980469 464.660156 C 2066.648438 464.660156 2054.089844 450.613281 2054.089844 431.445313 C 2054.089844 404.179688 2073.101563 380.550781 2100.53125 380.550781 C 2122.179688 380.550781 2133.410156 396.082031 2133.410156 413.765625 "/>
</g>
</svg>
